<svg xmlns="http://www.w3.org/2000/svg" xmlns:xlink="http://www.w3.org/1999/xlink" width="500" zoomAndPan="magnify" viewBox="0 0 375 149.999998" height="200" preserveAspectRatio="xMidYMid meet" version="1.0"><defs><g/><clipPath id="638e2dfa22"><path d="M 75.109375 16.582031 L 299.890625 16.582031 L 299.890625 133.417969 L 75.109375 133.417969 Z M 75.109375 16.582031 " clip-rule="nonzero"/></clipPath><clipPath id="c47dd44832"><path d="M 92.359375 16.582031 L 282.640625 16.582031 C 287.214844 16.582031 291.601562 18.398438 294.839844 21.636719 C 298.074219 24.871094 299.890625 29.257812 299.890625 33.832031 L 299.890625 116.167969 C 299.890625 120.742188 298.074219 125.128906 294.839844 128.363281 C 291.601562 131.601562 287.214844 133.417969 282.640625 133.417969 L 92.359375 133.417969 C 87.785156 133.417969 83.398438 131.601562 80.160156 128.363281 C 76.925781 125.128906 75.109375 120.742188 75.109375 116.167969 L 75.109375 33.832031 C 75.109375 29.257812 76.925781 24.871094 80.160156 21.636719 C 83.398438 18.398438 87.785156 16.582031 92.359375 16.582031 Z M 92.359375 16.582031 " clip-rule="nonzero"/></clipPath><clipPath id="81b00f98a2"><path d="M 81.417969 22.066406 L 293.582031 22.066406 L 293.582031 127.933594 L 81.417969 127.933594 Z M 81.417969 22.066406 " clip-rule="nonzero"/></clipPath><clipPath id="5b5307f8a1"><path d="M 98.667969 22.066406 L 276.332031 22.066406 C 280.90625 22.066406 285.292969 23.882812 288.527344 27.121094 C 291.765625 30.355469 293.582031 34.742188 293.582031 39.316406 L 293.582031 110.683594 C 293.582031 115.257812 291.765625 119.644531 288.527344 122.878906 C 285.292969 126.117188 280.90625 127.933594 276.332031 127.933594 L 98.667969 127.933594 C 94.09375 127.933594 89.707031 126.117188 86.472656 122.878906 C 83.234375 119.644531 81.417969 115.257812 81.417969 110.683594 L 81.417969 39.316406 C 81.417969 34.742188 83.234375 30.355469 86.472656 27.121094 C 89.707031 23.882812 94.09375 22.066406 98.667969 22.066406 Z M 98.667969 22.066406 " clip-rule="nonzero"/></clipPath><clipPath id="08e40b16f7"><path d="M 94.070312 33.035156 L 138 33.035156 L 138 116 L 94.070312 116 Z M 94.070312 33.035156 " clip-rule="nonzero"/></clipPath></defs><g clip-path="url(#638e2dfa22)"><g clip-path="url(#c47dd44832)"><path fill="#f0ff44" d="M 75.109375 16.582031 L 299.890625 16.582031 L 299.890625 133.417969 L 75.109375 133.417969 Z M 75.109375 16.582031 " fill-opacity="1" fill-rule="nonzero"/></g></g><g clip-path="url(#81b00f98a2)"><g clip-path="url(#5b5307f8a1)"><path fill="#16781f" d="M 81.417969 22.066406 L 293.582031 22.066406 L 293.582031 127.933594 L 81.417969 127.933594 Z M 81.417969 22.066406 " fill-opacity="1" fill-rule="nonzero"/></g></g><g clip-path="url(#08e40b16f7)"><path fill="#f0ff44" d="M 131.316406 33.546875 L 110.472656 33.546875 C 109.226562 33.546875 108.117188 34.324219 107.6875 35.492188 L 94.796875 70.636719 C 94.085938 72.574219 95.519531 74.625 97.589844 74.625 L 112.410156 74.625 C 112.890625 74.625 113.335938 74.859375 113.613281 75.25 C 113.886719 75.640625 113.949219 76.144531 113.789062 76.589844 L 99.167969 113.488281 C 98.5 115.179688 100.785156 116.445312 101.863281 114.984375 C 111.753906 101.589844 129.355469 77.707031 136.804688 67.605469 C 138.25 65.644531 136.839844 62.886719 134.40625 62.886719 L 122.679688 62.886719 C 122.164062 62.886719 121.679688 62.613281 121.417969 62.167969 C 121.152344 61.71875 121.144531 61.167969 121.394531 60.714844 L 133.917969 37.941406 C 135.007812 35.964844 133.574219 33.546875 131.316406 33.546875 " fill-opacity="1" fill-rule="nonzero"/></g><g fill="#f0ff44" fill-opacity="1"><g transform="translate(145.420703, 88.551535)"><g><path d="M 24.527344 0.863281 C 36.191406 0.863281 45.671875 -8.152344 45.671875 -19.289062 L 45.671875 -55.8125 L 36.988281 -55.8125 L 36.988281 -19.289062 C 36.988281 -12.992188 31.355469 -7.820312 24.527344 -7.820312 C 17.632812 -7.820312 12.0625 -12.992188 12.0625 -19.289062 L 12.0625 -55.8125 L 3.3125 -55.8125 L 3.3125 -19.289062 C 3.3125 -8.152344 12.792969 0.863281 24.527344 0.863281 Z M 24.527344 0.863281 "/></g></g></g><g fill="#f0ff44" fill-opacity="1"><g transform="translate(194.407472, 88.551535)"><g><path d="M 20.285156 -0.199219 C 23.398438 -0.199219 26.449219 -0.929688 29.101562 -2.386719 C 33.144531 -4.640625 35.863281 -8.152344 36.722656 -12.394531 C 37.984375 -18.429688 35.398438 -24.527344 29.960938 -28.371094 C 29.761719 -28.503906 29.628906 -28.636719 29.433594 -28.703125 L 15.246094 -35.929688 C 12.859375 -37.71875 11.667969 -40.304688 12.195312 -42.753906 C 12.527344 -44.480469 13.722656 -46.003906 15.511719 -47 C 17.5 -48.058594 19.886719 -48.390625 22.339844 -47.859375 C 25.1875 -47.261719 27.640625 -45.539062 28.835938 -43.351562 C 30.027344 -41.230469 32.679688 -40.4375 34.800781 -41.628906 C 36.921875 -42.753906 37.652344 -45.40625 36.523438 -47.527344 C 34.003906 -52.035156 29.5 -55.285156 24.128906 -56.410156 C 19.621094 -57.339844 15.113281 -56.675781 11.269531 -54.621094 C 7.226562 -52.367188 4.574219 -48.789062 3.644531 -44.546875 C 2.386719 -38.578125 4.972656 -32.480469 10.40625 -28.636719 C 10.605469 -28.503906 10.804688 -28.371094 11.003906 -28.304688 L 25.125 -21.078125 C 27.574219 -19.289062 28.703125 -16.636719 28.171875 -14.25 C 27.839844 -12.460938 26.648438 -11.003906 24.925781 -10.007812 C 22.9375 -8.949219 20.484375 -8.617188 18.03125 -9.148438 C 15.179688 -9.746094 12.792969 -11.402344 11.535156 -13.65625 C 10.339844 -15.777344 7.6875 -16.570312 5.566406 -15.378906 C 3.511719 -14.1875 2.71875 -11.535156 3.910156 -9.480469 C 6.363281 -4.972656 10.871094 -1.722656 16.242188 -0.597656 C 17.632812 -0.332031 18.957031 -0.199219 20.285156 -0.199219 Z M 20.285156 -0.199219 "/></g></g></g><g fill="#f0ff44" fill-opacity="1"><g transform="translate(234.77682, 88.551535)"><g><path d="M 3.3125 -0.265625 L 38.445312 -0.265625 C 40.832031 -0.265625 42.820312 -2.1875 42.820312 -4.640625 C 42.820312 -7.027344 40.832031 -8.949219 38.445312 -8.949219 L 12.0625 -8.949219 L 12.0625 -28.570312 L 31.882812 -28.570312 C 34.335938 -28.570312 36.257812 -30.558594 36.257812 -32.945312 C 36.257812 -35.398438 34.335938 -37.320312 31.882812 -37.320312 L 12.0625 -37.320312 L 12.0625 -48.191406 L 38.445312 -48.191406 C 40.832031 -48.191406 42.820312 -50.179688 42.820312 -52.566406 C 42.820312 -55.019531 40.832031 -56.941406 38.445312 -56.941406 L 3.3125 -56.941406 Z M 3.3125 -0.265625 "/></g></g></g><g fill="#f0ff44" fill-opacity="1"><g transform="translate(163.439701, 114.77952)"><g><path d="M 3.691406 0.0429688 C 6.25 0.0429688 6.746094 -1.839844 6.746094 -3.074219 L 6.746094 -7.710938 L 5.769531 -7.710938 L 5.769531 -3.074219 C 5.769531 -2.582031 5.6875 -0.769531 3.691406 -0.769531 C 1.695312 -0.769531 1.59375 -2.582031 1.59375 -3.074219 L 1.59375 -7.710938 L 0.617188 -7.710938 L 0.617188 -3.074219 C 0.617188 -1.839844 1.121094 0.0429688 3.691406 0.0429688 Z M 3.691406 0.0429688 "/></g></g></g><g fill="#f0ff44" fill-opacity="1"><g transform="translate(170.596169, 114.77952)"><g><path d="M 0.546875 0 L 1.429688 0 L 1.429688 -2.539062 C 1.429688 -3.566406 1.636719 -4.460938 2.589844 -4.460938 C 3.011719 -4.460938 3.230469 -4.207031 3.300781 -4.132812 L 3.527344 -4.84375 C 3.363281 -5.046875 3.085938 -5.203125 2.703125 -5.203125 C 1.996094 -5.203125 1.542969 -4.71875 1.429688 -4.289062 L 1.429688 -5.152344 L 0.546875 -5.152344 Z M 0.546875 0 "/></g></g></g><g fill="#f0ff44" fill-opacity="1"><g transform="translate(174.225815, 114.77952)"><g/></g></g><g fill="#f0ff44" fill-opacity="1"><g transform="translate(178.472402, 114.77952)"><g><path d="M 3.035156 0.0429688 C 4.402344 0.0195312 5.808594 -0.535156 5.808594 -2.015625 C 5.808594 -3.15625 4.617188 -3.679688 3.679688 -4.0625 C 2.949219 -4.359375 1.65625 -4.710938 1.65625 -5.789062 C 1.65625 -6.457031 2.222656 -6.949219 3.0625 -6.949219 C 3.96875 -6.949219 4.679688 -6.46875 5.214844 -5.871094 L 5.902344 -6.5 C 5.171875 -7.320312 4.328125 -7.753906 3.238281 -7.753906 C 1.550781 -7.753906 0.6875 -6.570312 0.6875 -5.664062 C 0.6875 -4.339844 1.832031 -3.867188 2.878906 -3.425781 C 4.164062 -2.890625 4.84375 -2.589844 4.84375 -1.921875 C 4.84375 -1.109375 4.039062 -0.78125 3.0625 -0.769531 C 2.261719 -0.769531 1.410156 -1.203125 0.964844 -1.800781 L 0.308594 -1.140625 C 0.996094 -0.402344 2.097656 0.0507812 3.035156 0.0429688 Z M 3.035156 0.0429688 "/></g></g></g><g fill="#f0ff44" fill-opacity="1"><g transform="translate(184.641775, 114.77952)"><g><path d="M 0.546875 0 L 1.429688 0 L 1.429688 -3.15625 C 1.429688 -3.804688 1.890625 -4.460938 2.753906 -4.460938 C 3.648438 -4.460938 4.082031 -3.804688 4.082031 -3.15625 L 4.082031 -0.0429688 L 4.070312 0 L 4.957031 0 L 4.957031 -3.15625 C 4.957031 -3.804688 5.378906 -4.460938 6.28125 -4.460938 C 7.15625 -4.460938 7.609375 -3.804688 7.609375 -3.15625 L 7.609375 0 L 8.492188 0 L 8.492188 -2.972656 C 8.492188 -4.574219 7.546875 -5.203125 6.5 -5.203125 C 5.605469 -5.203125 5.046875 -4.769531 4.730469 -4.195312 C 4.378906 -4.914062 3.761719 -5.203125 3.117188 -5.203125 C 2.179688 -5.203125 1.707031 -4.792969 1.429688 -4.339844 L 1.429688 -5.152344 L 0.546875 -5.152344 Z M 0.546875 0 "/></g></g></g><g fill="#f0ff44" fill-opacity="1"><g transform="translate(193.577079, 114.77952)"><g><path d="M 2.242188 0.0507812 C 2.664062 0.0507812 3.402344 0 3.816406 -0.554688 L 3.816406 0 L 4.699219 0 L 4.699219 -3.207031 C 4.699219 -4.597656 4.082031 -5.203125 2.921875 -5.203125 C 2.261719 -5.203125 1.523438 -4.894531 0.976562 -4.320312 L 1.5625 -3.90625 C 2.027344 -4.289062 2.34375 -4.460938 2.878906 -4.460938 C 3.628906 -4.460938 3.816406 -3.84375 3.816406 -3.207031 L 2.847656 -3.207031 C 1.460938 -3.207031 0.515625 -2.621094 0.515625 -1.492188 C 0.515625 -0.460938 1.328125 0.0507812 2.242188 0.0507812 Z M 2.375 -0.75 C 1.871094 -0.75 1.398438 -0.988281 1.398438 -1.542969 C 1.398438 -2.054688 1.789062 -2.335938 2.960938 -2.335938 L 3.816406 -2.335938 L 3.816406 -1.800781 C 3.816406 -1.203125 3.484375 -0.75 2.375 -0.75 Z M 2.375 -0.75 "/></g></g></g><g fill="#f0ff44" fill-opacity="1"><g transform="translate(198.687372, 114.77952)"><g><path d="M 0.546875 0 L 1.429688 0 L 1.429688 -2.539062 C 1.429688 -3.566406 1.636719 -4.460938 2.589844 -4.460938 C 3.011719 -4.460938 3.230469 -4.207031 3.300781 -4.132812 L 3.527344 -4.84375 C 3.363281 -5.046875 3.085938 -5.203125 2.703125 -5.203125 C 1.996094 -5.203125 1.542969 -4.71875 1.429688 -4.289062 L 1.429688 -5.152344 L 0.546875 -5.152344 Z M 0.546875 0 "/></g></g></g><g fill="#f0ff44" fill-opacity="1"><g transform="translate(202.317019, 114.77952)"><g><path d="M 1.984375 0.0507812 C 2.304688 0.0507812 2.457031 0.0117188 2.714844 -0.0703125 L 2.714844 -0.832031 C 1.6875 -0.65625 1.820312 -1.089844 1.820312 -2.191406 L 1.820312 -4.410156 L 2.714844 -4.410156 L 2.714844 -5.152344 L 1.820312 -5.152344 L 1.820312 -6.304688 L 0.945312 -6.304688 L 0.945312 -5.152344 L 0.308594 -5.152344 L 0.308594 -4.410156 L 0.945312 -4.410156 L 0.945312 -1.953125 C 0.945312 -0.617188 1.070312 0.0507812 1.984375 0.0507812 Z M 1.984375 0.0507812 "/></g></g></g><g fill="#f0ff44" fill-opacity="1"><g transform="translate(205.237186, 114.77952)"><g/></g></g><g fill="#f0ff44" fill-opacity="1"><g transform="translate(209.483773, 114.77952)"><g><path d="M 0.617188 0 L 5.859375 0 L 5.859375 -0.800781 L 1.59375 -0.800781 L 1.59375 -3.609375 L 4.914062 -3.609375 L 4.914062 -4.421875 L 1.59375 -4.421875 L 1.59375 -6.910156 L 5.664062 -6.910156 L 5.664062 -7.710938 L 0.617188 -7.710938 Z M 0.617188 0 "/></g></g></g><g fill="#f0ff44" fill-opacity="1"><g transform="translate(215.653147, 114.77952)"><g><path d="M 3.074219 0.0507812 C 3.773438 0.0507812 4.472656 -0.265625 4.957031 -0.769531 L 4.308594 -1.355469 C 4.019531 -0.996094 3.578125 -0.679688 3.042969 -0.679688 C 2.117188 -0.679688 1.328125 -1.46875 1.328125 -2.570312 C 1.328125 -3.679688 2.117188 -4.460938 3.042969 -4.460938 C 3.578125 -4.460938 4.019531 -4.152344 4.308594 -3.792969 L 4.957031 -4.378906 C 4.472656 -4.882812 3.773438 -5.203125 3.074219 -5.203125 C 1.625 -5.203125 0.441406 -4.082031 0.441406 -2.570312 C 0.441406 -1.058594 1.625 0.0507812 3.074219 0.0507812 Z M 3.074219 0.0507812 "/></g></g></g><g fill="#f0ff44" fill-opacity="1"><g transform="translate(221.092478, 114.77952)"><g><path d="M 3.1875 0.0507812 C 4.648438 0.0507812 5.800781 -1.132812 5.800781 -2.570312 C 5.800781 -4.011719 4.648438 -5.203125 3.1875 -5.203125 C 1.726562 -5.203125 0.585938 -4.011719 0.585938 -2.570312 C 0.585938 -1.132812 1.726562 0.0507812 3.1875 0.0507812 Z M 3.1875 -0.679688 C 2.28125 -0.679688 1.460938 -1.335938 1.460938 -2.570312 C 1.460938 -3.816406 2.28125 -4.460938 3.1875 -4.460938 C 4.101562 -4.460938 4.914062 -3.816406 4.914062 -2.570312 C 4.914062 -1.335938 4.101562 -0.679688 3.1875 -0.679688 Z M 3.1875 -0.679688 "/></g></g></g><g fill="#f0ff44" fill-opacity="1"><g transform="translate(227.231002, 114.77952)"><g><path d="M 2.570312 0.0507812 C 3.660156 0.0507812 4.308594 -0.554688 4.308594 -1.273438 C 4.308594 -2.222656 3.433594 -2.570312 2.929688 -2.765625 C 1.882812 -3.167969 1.460938 -3.371094 1.460938 -3.84375 C 1.460938 -4.234375 1.882812 -4.460938 2.417969 -4.460938 C 2.890625 -4.460938 3.320312 -4.265625 3.660156 -3.949219 L 4.234375 -4.484375 C 3.773438 -4.925781 3.167969 -5.203125 2.46875 -5.203125 C 1.265625 -5.203125 0.574219 -4.585938 0.574219 -3.785156 C 0.574219 -3.035156 1.089844 -2.621094 2.160156 -2.222656 C 2.929688 -1.921875 3.425781 -1.777344 3.425781 -1.316406 C 3.425781 -0.894531 3.085938 -0.679688 2.445312 -0.679688 C 1.839844 -0.679688 1.335938 -1.007812 1.078125 -1.214844 L 0.484375 -0.65625 C 0.9375 -0.238281 1.625 0.0507812 2.570312 0.0507812 Z M 2.570312 0.0507812 "/></g></g></g><g fill="#f0ff44" fill-opacity="1"><g transform="translate(231.868316, 114.77952)"><g><path d="M 1.335938 1.109375 C 1.882812 1.089844 2.242188 0.546875 2.53125 -0.0429688 L 4.515625 -5.152344 L 3.621094 -5.152344 L 2.292969 -1.851562 L 0.964844 -5.152344 L 0.0703125 -5.152344 L 1.914062 -0.710938 C 1.832031 -0.265625 1.550781 0.390625 1.101562 0.390625 C 0.90625 0.390625 0.730469 0.320312 0.503906 0.207031 L 0.328125 0.875 C 0.667969 1.058594 1.039062 1.132812 1.335938 1.109375 Z M 1.335938 1.109375 "/></g></g></g><g fill="#f0ff44" fill-opacity="1"><g transform="translate(236.485067, 114.77952)"><g><path d="M 2.570312 0.0507812 C 3.660156 0.0507812 4.308594 -0.554688 4.308594 -1.273438 C 4.308594 -2.222656 3.433594 -2.570312 2.929688 -2.765625 C 1.882812 -3.167969 1.460938 -3.371094 1.460938 -3.84375 C 1.460938 -4.234375 1.882812 -4.460938 2.417969 -4.460938 C 2.890625 -4.460938 3.320312 -4.265625 3.660156 -3.949219 L 4.234375 -4.484375 C 3.773438 -4.925781 3.167969 -5.203125 2.46875 -5.203125 C 1.265625 -5.203125 0.574219 -4.585938 0.574219 -3.785156 C 0.574219 -3.035156 1.089844 -2.621094 2.160156 -2.222656 C 2.929688 -1.921875 3.425781 -1.777344 3.425781 -1.316406 C 3.425781 -0.894531 3.085938 -0.679688 2.445312 -0.679688 C 1.839844 -0.679688 1.335938 -1.007812 1.078125 -1.214844 L 0.484375 -0.65625 C 0.9375 -0.238281 1.625 0.0507812 2.570312 0.0507812 Z M 2.570312 0.0507812 "/></g></g></g><g fill="#f0ff44" fill-opacity="1"><g transform="translate(241.122381, 114.77952)"><g><path d="M 1.984375 0.0507812 C 2.304688 0.0507812 2.457031 0.0117188 2.714844 -0.0703125 L 2.714844 -0.832031 C 1.6875 -0.65625 1.820312 -1.089844 1.820312 -2.191406 L 1.820312 -4.410156 L 2.714844 -4.410156 L 2.714844 -5.152344 L 1.820312 -5.152344 L 1.820312 -6.304688 L 0.945312 -6.304688 L 0.945312 -5.152344 L 0.308594 -5.152344 L 0.308594 -4.410156 L 0.945312 -4.410156 L 0.945312 -1.953125 C 0.945312 -0.617188 1.070312 0.0507812 1.984375 0.0507812 Z M 1.984375 0.0507812 "/></g></g></g><g fill="#f0ff44" fill-opacity="1"><g transform="translate(244.042548, 114.77952)"><g><path d="M 2.921875 0.0507812 C 3.96875 0.0507812 4.628906 -0.453125 5.027344 -0.894531 L 4.503906 -1.378906 C 4.03125 -0.945312 3.535156 -0.679688 2.890625 -0.679688 C 2.066406 -0.679688 1.265625 -1.253906 1.265625 -2.167969 L 5.347656 -2.179688 L 5.347656 -2.632812 C 5.347656 -4.082031 4.371094 -5.203125 2.949219 -5.203125 C 1.511719 -5.203125 0.410156 -4.011719 0.410156 -2.5 C 0.410156 -0.976562 1.386719 0.0507812 2.921875 0.0507812 Z M 1.296875 -2.992188 C 1.296875 -3.804688 2.085938 -4.460938 2.949219 -4.460938 C 3.792969 -4.460938 4.460938 -3.90625 4.460938 -2.992188 Z M 1.296875 -2.992188 "/></g></g></g><g fill="#f0ff44" fill-opacity="1"><g transform="translate(249.728656, 114.77952)"><g><path d="M 0.546875 0 L 1.429688 0 L 1.429688 -3.15625 C 1.429688 -3.804688 1.890625 -4.460938 2.753906 -4.460938 C 3.648438 -4.460938 4.082031 -3.804688 4.082031 -3.15625 L 4.082031 -0.0429688 L 4.070312 0 L 4.957031 0 L 4.957031 -3.15625 C 4.957031 -3.804688 5.378906 -4.460938 6.28125 -4.460938 C 7.15625 -4.460938 7.609375 -3.804688 7.609375 -3.15625 L 7.609375 0 L 8.492188 0 L 8.492188 -2.972656 C 8.492188 -4.574219 7.546875 -5.203125 6.5 -5.203125 C 5.605469 -5.203125 5.046875 -4.769531 4.730469 -4.195312 C 4.378906 -4.914062 3.761719 -5.203125 3.117188 -5.203125 C 2.179688 -5.203125 1.707031 -4.792969 1.429688 -4.339844 L 1.429688 -5.152344 L 0.546875 -5.152344 Z M 0.546875 0 "/></g></g></g><g fill="#f0ff44" fill-opacity="1"><g transform="translate(258.671157, 114.77952)"><g/></g></g></svg>